<svg xmlns="http://www.w3.org/2000/svg" viewBox="0 0 24 24"><defs><style>.cls-1{fill:#fff;}</style></defs><g id="Layer_5" data-name="Layer 5"><rect x="-0.04" y="-0.03" width="24.03" height="24.03"/><path class="cls-1" d="M13.07,6.17h1.06v4.72H13.07V9h-1.9v1.87H10.12V7.19H8.94V10.9H7.88V7.19H6.7v-1h4.47V8h1.9Zm4.24,1v-1H14.36V10.9h2.95v-1H15.42V9H17V8H15.42V7.19Z"/><path class="cls-1" d="M5.55,12.4H6.61v4.72H5.7L3.43,14.2v2.92H2.36V12.4h.91l2.28,2.91ZM1.07,17.12H2.13V12.4H1.07Zm9.31,0h1.06V12.4H10.38Zm5.31-4.72h3v1H16.75v.84h1.53v1H16.75v.85h1.89v1h-3V14.78a2.38,2.38,0,0,1-2.4,2.33H11.68V12.39h1.61a2.38,2.38,0,0,1,2.4,2.33Zm-1.07,2.35a1.32,1.32,0,0,0-1.33-1.39h-.55v2.78h.55A1.32,1.32,0,0,0,14.62,14.75ZM9,14.31l-.54-.14c-.37-.1-.58-.24-.57-.5s.24-.39.56-.39a.65.65,0,0,1,.65.5h1.05a1.63,1.63,0,0,0-1.7-1.48,1.44,1.44,0,0,0-1.62,1.44,1.49,1.49,0,0,0,1.27,1.42l.46.12c.45.12.62.29.62.51s-.26.42-.61.42a.76.76,0,0,1-.81-.62h-1a1.73,1.73,0,0,0,1.86,1.6,1.51,1.51,0,0,0,1.68-1.43A1.48,1.48,0,0,0,9,14.31Zm13.92,2.81H21.67l-1.57-2h-.17v2H18.87V12.4h1.87a1.39,1.39,0,0,1,1.46,1.42A1.22,1.22,0,0,1,21.27,15Zm-1.79-3.3c0-.29-.23-.45-.54-.45h-.67v.9h.67A.48.48,0,0,0,21.15,13.82Z"/></g></svg>